<svg xmlns="http://www.w3.org/2000/svg" width="270" height="120" fill="none"><path fill="#000" fill-rule="evenodd" d="M151.666 72.894c20.129 0 36.447-16.317 36.447-36.447C188.113 16.318 171.795 0 151.666 0s-36.447 16.318-36.447 36.447a36.282 36.282 0 0 0 4.409 17.392l24.806-25.3-6.088-6.087h27.673v27.673l-6.4-6.4-24.67 25.118a36.29 36.29 0 0 0 16.717 4.051Z" clip-rule="evenodd"/><path fill="#000" d="M82.259 17.053 107.55.086a.5.5 0 0 1 .779.415v64.627a.837.837 0 0 1-.244.59l-20.5 20.5a.5.5 0 0 1-.854-.351V22.835a.785.785 0 0 0-.244-.568L82.17 17.95a.584.584 0 0 1 .088-.898ZM145.932 80.016v30.911h-10.309v-3.308a11.098 11.098 0 0 1-4.1 2.852 13.375 13.375 0 0 1-5.069.969c-3.987 0-7.176-1.179-9.568-3.536-2.354-2.357-3.532-5.893-3.532-10.608v-6.414c0-.033.014-.064.037-.088l10.502-10.496a.166.166 0 0 1 .283.118v15.112c0 2.32.436 4.012 1.31 5.076.873 1.065 2.145 1.597 3.816 1.597 1.708 0 3.094-.59 4.158-1.768 1.101-1.217 1.651-3.06 1.651-5.532V80.016h10.821ZM171.099 79.502c2.81 0 5.354.666 7.632 1.996 2.316 1.293 4.138 3.155 5.467 5.59 1.367 2.395 2.051 5.189 2.051 8.383 0 3.194-.684 6.007-2.051 8.44-1.329 2.396-3.151 4.259-5.467 5.59-2.278 1.292-4.822 1.939-7.632 1.939-3.607 0-6.474-1.084-8.6-3.251v11.81h-10.821V80.015h10.309v3.08c2.012-2.395 5.049-3.593 9.112-3.593Zm-2.278 23.326c1.898 0 3.455-.647 4.671-1.939 1.214-1.33 1.822-3.137 1.822-5.418s-.608-4.069-1.822-5.361c-1.216-1.33-2.773-1.996-4.671-1.996-1.899 0-3.455.665-4.67 1.996-1.215 1.292-1.823 3.08-1.823 5.361 0 2.28.608 4.087 1.823 5.418 1.215 1.292 2.771 1.939 4.67 1.939Z"/></svg>