<svg width="270" height="120" viewBox="0 0 270 120" fill="none" xmlns="http://www.w3.org/2000/svg">
<g clip-path="url(#clip0_4514_6431)">
<path d="M188.169 84.7639C186.04 87.3018 183.571 88.7901 180.631 89.3801C175.551 90.4006 170.931 89.1607 166.77 86.2005C161.286 82.3006 159.426 76.6887 159.478 70.2551C159.53 63.6682 162.082 58.4124 167.716 54.7195C173.836 50.7078 182.528 50.952 187.856 56.2058C187.902 56.2513 187.979 56.2637 188.045 56.2948C188.354 56.1354 188.171 55.8559 188.171 55.6469C188.167 48.0602 188.149 40.4735 188.134 32.8869C188.132 31.3551 188.281 31.2226 189.826 31.2246C192.992 31.2309 196.16 31.2309 199.326 31.2246C200.751 31.2226 200.858 31.3199 200.856 32.7937C200.85 48.143 200.84 63.4943 200.833 78.8436C200.833 81.6527 200.825 84.4638 200.869 87.2728C200.883 88.2146 200.564 88.5873 199.583 88.5748C196.17 88.5334 192.756 88.5438 189.343 88.5728C188.443 88.581 188.043 88.3037 188.151 87.3411C188.238 86.5959 188.169 85.8279 188.169 84.7639ZM172.538 70.7622C172.538 75.2749 176.04 78.825 180.502 78.8374C184.808 78.8478 188.65 75.0534 188.64 70.8016C188.63 66.5538 184.885 62.8754 180.556 62.8609C176.136 62.8464 172.538 66.3903 172.538 70.7622Z" fill="black"/>
<path d="M46.7928 56.3911C46.7928 55.5403 46.8342 54.88 46.7824 54.2279C46.7181 53.4247 46.9897 53.0728 47.8398 53.0791C51.4288 53.106 55.0178 53.0998 58.6068 53.0811C59.2744 53.077 59.5647 53.2964 59.5377 53.9961C59.4963 55.0476 59.5315 56.1034 59.5315 57.157C59.5398 67.1304 59.5481 77.1038 59.5543 87.0772C59.5543 88.3938 59.3843 88.5718 58.132 88.5697C54.7897 88.5676 51.4475 88.5677 48.1052 88.5614C46.8488 88.5594 46.7368 88.4124 46.7969 87.1393C46.8301 86.4438 46.8031 85.7483 46.8031 84.8954C44.4996 87.4415 41.7338 88.8595 38.4993 89.4329C31.6261 90.6542 23.8178 86.9261 20.6145 80.7471C16.673 73.1439 17.2079 65.7456 22.0845 58.7385C26.8138 51.9426 37.2221 49.9202 44.255 54.3128C45.1175 54.8531 45.8722 55.5341 46.7928 56.3911ZM39.2167 78.8385C43.5272 78.8323 47.2448 75.1683 47.2759 70.8917C47.309 66.5322 43.6516 62.8827 39.2312 62.8641C34.7714 62.8434 31.1098 66.4432 31.1451 70.813C31.1824 75.2077 34.8398 78.8447 39.2167 78.8385Z" fill="black"/>
<path d="M230.935 69.2228C226.981 69.1607 223.236 68.6308 219.767 66.8816C213.311 63.6275 209.844 58.3055 209.369 51.168C208.787 42.3911 213.999 35.6469 222.222 32.604C229.67 29.8488 236.74 30.6913 243.464 34.7278C249.798 38.5305 252.452 44.2934 251.936 51.5261C251.318 60.1851 245.958 66.1881 236.97 68.4879C235.95 68.7488 234.911 68.9661 233.868 69.1007C232.861 69.2311 231.839 69.318 230.935 69.2228ZM222.637 50.075C222.66 54.6105 226.245 58.1978 230.731 58.1709C235.152 58.1461 238.759 54.4966 238.732 50.073C238.708 45.7073 235.079 42.0868 230.725 42.0826C226.257 42.0806 222.616 45.6783 222.637 50.075Z" fill="black"/>
<path d="M152.97 65.7249C152.97 69.0618 152.98 72.3987 152.968 75.7356C152.945 82.548 149.758 86.8951 143.223 88.7064C136.59 90.5466 129.918 90.4597 123.4 88.2178C118.741 86.6156 116.184 83.109 115.382 78.2817C115.098 76.5718 115.133 74.8516 115.131 73.1335C115.119 66.9172 115.125 60.6989 115.127 54.4825C115.127 53.1412 115.202 53.0832 116.578 53.0853C119.709 53.0915 122.842 53.0956 125.973 53.0894C127.816 53.0853 127.816 53.0749 127.814 54.9607C127.81 60.6864 127.81 66.4121 127.803 72.1358C127.803 73.3322 127.793 74.537 128.112 75.6942C128.923 78.6336 131.386 79.6976 134.569 79.592C138.195 79.472 140.165 77.553 140.351 73.945C140.644 68.2627 140.457 62.5681 140.459 56.8796C140.459 55.9668 140.441 55.0539 140.445 54.141C140.447 53.4123 140.816 53.0604 141.56 53.0625C145.008 53.0749 148.456 53.0853 151.904 53.0687C152.827 53.0646 153.003 53.5572 152.999 54.3439C152.978 58.1362 152.991 61.9305 152.991 65.7249C152.987 65.7249 152.978 65.7249 152.97 65.7249Z" fill="black"/>
<path d="M80.3044 59.9493C80.3044 69.016 80.3044 78.0828 80.3044 87.1495C80.3044 88.5447 80.2795 88.5675 78.8924 88.5675C75.6186 88.5696 72.3447 88.5737 69.0709 88.5737C67.8414 88.5737 67.6568 88.3957 67.6568 87.1744C67.6548 69.0409 67.6548 50.9095 67.6568 32.776C67.6568 31.4326 67.8621 31.2276 69.1559 31.2276C72.4297 31.2297 75.7036 31.2566 78.9774 31.2152C79.9623 31.2028 80.3334 31.4905 80.3292 32.538C80.2898 41.6751 80.3044 50.8122 80.3044 59.9493Z" fill="black"/>
<path d="M103.327 76.0249C103.327 79.7841 103.302 83.5433 103.344 87.3024C103.354 88.2836 102.987 88.5941 102.044 88.5859C98.664 88.5527 95.2865 88.5507 91.9069 88.5879C90.9407 88.5983 90.6256 88.2422 90.6297 87.2838C90.6671 79.9062 90.6629 72.5266 90.6712 65.149C90.6733 63.555 90.553 63.4495 88.9959 63.613C88.7513 63.6379 88.5045 63.6482 88.2578 63.6544C86.6136 63.7082 86.3897 63.4329 86.4312 61.7769C86.4892 59.355 86.483 56.931 86.4913 54.5069C86.4954 53.1842 86.6572 52.9586 87.9219 53.1055C91.1128 53.4802 90.7583 52.8447 90.6816 50.4104C90.609 48.094 90.6712 45.7735 90.6339 43.4551C90.6214 42.714 90.9718 42.4283 91.6415 42.4262C95.1953 42.418 98.7511 42.4159 102.305 42.42C103.045 42.42 103.346 42.7926 103.335 43.5523C103.302 46.3634 103.344 49.1745 103.292 51.9836C103.275 52.8716 103.574 53.1531 104.445 53.12C106.062 53.0559 107.683 53.1076 109.3 53.0683C110.117 53.0476 110.48 53.4078 110.449 54.1944C110.337 56.9682 110.352 59.7441 110.443 62.518C110.47 63.3315 110.053 63.6296 109.263 63.6089C107.646 63.5654 106.024 63.5965 104.407 63.5426C103.588 63.5157 103.29 63.8117 103.298 64.6418C103.329 68.4362 103.31 72.2305 103.31 76.0249C103.317 76.0249 103.323 76.0249 103.327 76.0249Z" fill="black"/>
</g>
<defs>
<clipPath id="clip0_4514_6431">
<rect width="234" height="59" fill="white" transform="translate(18 31)"/>
</clipPath>
</defs>
</svg>
