<svg xmlns="http://www.w3.org/2000/svg" width="270" height="120" fill="none"><g fill="#000" clip-path="url(#a)"><path d="M42.341 108.124c.629 0 1.279 0 1.992.063v-.158c0-2.18-1.216-2.641-3.27-2.641a13.44 13.44 0 0 0-3.596.398l-.419-1.718a18.995 18.995 0 0 1 4.098-.399c2.62 0 5.094.839 5.094 4.643v7.128a38.172 38.172 0 0 1-4.716.356c-3.7 0-5.545-1.048-5.545-3.857s2.243-3.815 6.362-3.815Zm2.044 1.803c-.67 0-1.363-.084-2.285-.084-2.715 0-4.12.482-4.12 2.096s.944 2.096 3.617 2.096c.776 0 1.698-.063 2.788-.147v-3.961ZM64.75 115.441H62.82v-7.106c0-1.373-.566-2.945-2.494-2.945a5.999 5.999 0 0 0-3.145.911 7.11 7.11 0 0 1 .294 1.908v7.232h-1.94v-7.232c0-1.96-.9-2.819-2.766-2.819-.88-.018-1.76.066-2.62.251v9.8H48.23v-11.414a28.77 28.77 0 0 1 4.455-.356 5.24 5.24 0 0 1 3.522 1.048 8.207 8.207 0 0 1 4.077-1.048c2.725 0 4.465 1.593 4.465 4.559v7.211ZM68.345 110.598c.273 2.872 1.782 3.48 3.951 3.48 1.352.01 2.702-.124 4.025-.398l.399 1.718c-1.51.257-3.039.39-4.57.399-3.994 0-5.755-1.803-5.755-6.079 0-3.449 1.258-6.048 5.398-6.048 3.208 0 5.409 1.719 5.409 6.048v.88h-8.857Zm6.907-1.698a3.147 3.147 0 0 0-2.064-3.347 3.147 3.147 0 0 0-1.395-.164 3.24 3.24 0 0 0-3.448 3.511h6.907ZM80.797 105.578v9.862h-1.929v-11.414a21.772 21.772 0 0 1 3.805-.356c2.956 0 4.758 1.383 4.758 4.329h-1.95c0-1.604-.649-2.61-2.913-2.61a7.487 7.487 0 0 0-1.771.189ZM90.073 102.013c-.954 0-1.216-.607-1.216-1.299s.262-1.3 1.216-1.3 1.216.608 1.216 1.3c0 .692-.168 1.299-1.216 1.299Zm.943 2.013v11.414h-1.928v-11.414h1.928ZM102.368 115.44c-1.353.205-2.72.31-4.088.315-3.68 0-5.587-1.918-5.587-5.964 0-3.145 1.258-6.153 5.409-6.153a19.456 19.456 0 0 1 4.014.367l-.398 1.677a16.791 16.791 0 0 0-3.27-.335c-3.365 0-3.805 2.18-3.805 4.255 0 3.302.964 4.413 4.056 4.413a31.508 31.508 0 0 0 3.333-.283l.336 1.708ZM110.082 108.124c.618 0 1.278 0 1.981.063v-.157c0-2.181-1.206-2.642-3.26-2.642a13.484 13.484 0 0 0-3.606.399l-.398-1.719a19.03 19.03 0 0 1 4.109-.399c2.61 0 5.083.839 5.083 4.644v7.127c-1.56.216-3.131.335-4.706.356-3.71 0-5.555-1.048-5.555-3.857s2.222-3.815 6.352-3.815Zm1.981 1.803c-.671 0-1.363-.084-2.275-.084-2.725 0-4.129.482-4.129 2.096s.943 2.096 3.626 2.096c.776 0 1.688-.063 2.778-.146v-3.962ZM117.901 115.44h-1.929v-11.414a34.436 34.436 0 0 1 5.021-.356c2.327 0 4.842.713 4.842 4.696v7.074h-1.929v-6.865c0-2.18-.649-3.144-2.767-3.144a22.938 22.938 0 0 0-3.238.251v9.758ZM129.451 110.598c.272 2.872 1.771 3.48 3.951 3.48 1.352.01 2.702-.124 4.025-.398l.399 1.718c-1.51.257-3.039.39-4.57.399-3.994 0-5.755-1.803-5.755-6.079 0-3.449 1.258-6.048 5.398-6.048 3.208 0 5.409 1.719 5.409 6.048v.88h-8.857Zm6.907-1.698c.058-.47.009-.948-.143-1.397a3.157 3.157 0 0 0-1.921-1.95 3.15 3.15 0 0 0-1.395-.164 3.237 3.237 0 0 0-3.448 3.511h6.907ZM146.053 108.124c.629 0 1.279 0 1.992.063v-.157c0-2.181-1.216-2.642-3.271-2.642a13.472 13.472 0 0 0-3.605.399l-.398-1.719a19.021 19.021 0 0 1 4.108-.399c2.62 0 5.084.839 5.084 4.644v7.127a37.63 37.63 0 0 1-4.706.356c-3.711 0-5.545-1.048-5.545-3.857s2.149-3.815 6.341-3.815Zm1.992 1.803c-.671 0-1.363-.084-2.285-.084-2.726 0-4.13.482-4.13 2.096s.943 2.096 3.627 2.096c.775 0 1.697-.063 2.788-.146v-3.962ZM153.034 117.967c1.207.192 2.426.297 3.647.314 2.359 0 3.239-.252 3.239-2.84a14.212 14.212 0 0 1-3.144.356c-3.082 0-5.241-1.908-5.241-6.1 0-3.952 2.096-6.027 6.121-6.027a22.75 22.75 0 0 1 4.119.357v11.414c0 3.427-1.425 4.559-5.062 4.559a21.666 21.666 0 0 1-4.276-.377l.597-1.656Zm6.886-12.473a30.672 30.672 0 0 0-2.369-.105c-2.84 0-4.035 1.614-4.035 4.308 0 3.144.922 4.381 3.448 4.381.997.004 1.99-.115 2.956-.356v-8.228ZM167.644 115.755h-.838c-1.688 0-3.008-.607-3.008-2.788V99.342h1.949v12.797c0 1.531.241 1.866 1.206 1.866.09.01.182.01.272 0l.419 1.75ZM170.957 110.598c.272 2.872 1.782 3.48 3.951 3.48 1.352.01 2.701-.124 4.025-.398l.398 1.718c-1.51.257-3.038.39-4.569.399-3.994 0-5.755-1.803-5.755-6.079 0-3.449 1.258-6.048 5.398-6.048 3.207 0 5.409 1.719 5.409 6.048v.88h-8.857Zm6.907-1.698a3.14 3.14 0 0 0-.881-2.592 3.151 3.151 0 0 0-2.578-.919 3.237 3.237 0 0 0-3.448 3.511h6.907ZM195.043 115.483c-1.353.205-2.719.31-4.088.315-3.679 0-5.586-1.929-5.586-5.974 0-3.145 1.257-6.153 5.398-6.153a19.484 19.484 0 0 1 4.024.377l-.398 1.677a16.783 16.783 0 0 0-3.27-.335c-3.375 0-3.815 2.18-3.815 4.192 0 3.313.964 4.424 4.066 4.424a29.052 29.052 0 0 0 3.333-.294l.336 1.771ZM201.908 103.67c4.434 0 5.503 2.977 5.503 6.048 0 3.249-1.048 6.079-5.503 6.079-4.454 0-5.503-2.83-5.503-6.079-.041-3.071 1.059-6.048 5.503-6.048Zm0 1.719c-3.312 0-3.574 2.442-3.574 4.329 0 1.886.262 4.36 3.574 4.36s3.585-2.348 3.585-4.36c0-2.013-.137-4.329-3.585-4.329ZM225.606 115.44h-1.928v-7.106c0-1.373-.566-2.945-2.495-2.945a5.999 5.999 0 0 0-3.144.912c.189.618.288 1.261.293 1.907v7.232h-1.949v-7.232c0-1.96-.891-2.819-2.757-2.819a11.42 11.42 0 0 0-2.62.251v9.8h-1.929v-11.414a29.157 29.157 0 0 1 4.465-.356 5.239 5.239 0 0 1 3.511 1.048 8.25 8.25 0 0 1 4.088-1.048c2.725 0 4.465 1.593 4.465 4.559v7.211ZM182.591 108.209c1.142 0 1.415.755 1.415 1.551 0 .797-.273 1.562-1.415 1.562-1.143 0-1.415-.723-1.415-1.562 0-.838.272-1.551 1.415-1.551ZM233.624 113.366a2.096 2.096 0 1 1-4.193 0 2.096 2.096 0 0 1 4.193 0Zm-3.668 0a1.602 1.602 0 0 0 .973 1.51 1.557 1.557 0 0 0 1.74-.358 1.564 1.564 0 0 0 .431-1.142 1.572 1.572 0 0 0-3.144 0v-.01Zm1.247 1.048h-.472v-2.096c.261-.038.523-.059.786-.063.247-.029.496.03.703.167a.502.502 0 0 1 .209.43.534.534 0 0 1-.429.493c.209.063.304.22.366.503.03.169.079.335.147.493H232a1.573 1.573 0 0 1-.168-.493c0-.22-.157-.315-.419-.315h-.231l.021.881Zm0-1.143h.22c.262 0 .472-.083.472-.304 0-.22-.137-.303-.43-.303h-.262v.607ZM93.196 29.767a42.69 42.69 0 0 0 6.74 3.448 183.724 183.724 0 0 0 27.041 10.576 161.7 161.7 0 0 1-7.693-4.413 141.074 141.074 0 0 1-4.675-2.956 186.1 186.1 0 0 1-36.317-30.72A194.728 194.728 0 0 1 73.282 0a44.02 44.02 0 0 0 2.893 9.81 43.707 43.707 0 0 0 17.021 19.957ZM198.459 61.23a16.768 16.768 0 0 0-7.483-2.096 8.047 8.047 0 0 0-.252-.639c-.094-.21-.094-.22-.146-.335l-.189-.367a10.224 10.224 0 0 0-2.411-2.956 10.63 10.63 0 0 0-1.373-1.048l-.115-.063a9.428 9.428 0 0 0-1.499-.723c-.525-.2-1.064-.358-1.614-.472a10.763 10.763 0 0 0-1.939-.199h-22.325l.293.136a42.967 42.967 0 0 1 4.79 2.474c.43.262.849.513 1.258.786a41.737 41.737 0 0 1 2.62 1.824l.189.146c.346.263.671.524 1.048.797a43.68 43.68 0 0 1 2.233 1.929l.335.325c.535.503 1.048 1.048 1.551 1.54.503.493 1.048 1.132 1.562 1.72.147.177.293.345.43.523a43.073 43.073 0 0 1 4.349 6.247c.325.576.64 1.153.944 1.74a45.349 45.349 0 0 1 2.264 5.24c.012-2.063.66-4.072 1.855-5.754l.105-.146a10.197 10.197 0 0 1 4.758-3.553 10.097 10.097 0 0 1 3.396-.587 3.365 3.365 0 0 1 3.365 3.375 9.932 9.932 0 0 0 1.834-1.919 10.057 10.057 0 0 0 1.834-4.402c.006-.09.006-.181 0-.272v-.336a3.365 3.365 0 0 0-1.667-2.934Zm-10.931-1.488-.378.137c-.572.166-1.158.286-1.75.356-.357 0-.723.052-1.048.052h-.262a2.253 2.253 0 0 1-1.992-2.232 3.082 3.082 0 0 1 0-.304l-.409-.105-.324-.084a6.597 6.597 0 0 0-1.51-.167h-.262a6.296 6.296 0 0 1 1.792-.42h.944a6.706 6.706 0 0 1 4.192 1.667l.241.21c.262.217.571.37.902.45.169.034.341.051.513.053.136.01.273.01.409 0l-1.058.387Z"/><path d="M177.497 72.593c-.189-.346-.398-.692-.597-1.048-.525-.88-1.049-1.74-1.667-2.568l-.251-.356a56.838 56.838 0 0 0-1.164-1.562 50.554 50.554 0 0 0-1.813-2.159l-.598-.65a32.965 32.965 0 0 0-2.096-2.096c-1.048-1.048-2.222-1.981-3.406-2.893l-.137-.094a10.483 10.483 0 0 0-.66-.493 42.066 42.066 0 0 0-4.318-2.777l-.891-.483-.797-.419a43.714 43.714 0 0 0-3.93-1.74l-.157-.063a43.475 43.475 0 0 0-9.433-2.442 175.597 175.597 0 0 1-4.591-.828l-2.149-.43-1.949-.408a186.691 186.691 0 0 1-22.284-6.383 186.095 186.095 0 0 1-39.2-19.286 173.958 173.958 0 0 1-10.24-7.127 197.015 197.015 0 0 1-3.752-2.872 43.915 43.915 0 0 0 14.108 20.879 44.136 44.136 0 0 0 8.615 5.534c1.07.517 2.16.989 3.27 1.415a185.029 185.029 0 0 0 36.737 11.215l.986.188c2.651.504 5.314.954 7.997 1.331 6.164.894 12.37 1.471 18.594 1.73l1.373.052h.419-.44l-1.478.063c-6.918.23-13.842.076-20.743-.461a182.693 182.693 0 0 1-9.936-1.048l-.451-.053a186.827 186.827 0 0 1-42.732-11.015 198.503 198.503 0 0 1-5.806-2.38 44.022 44.022 0 0 0 28.781 19.61c1.164.221 2.338.4 3.522.525 1.88.266 3.763.5 5.649.702l.713.074a185.114 185.114 0 0 0 36.391.22l2.159-.22c2.096-.22 4.287-.483 6.436-.787a157.47 157.47 0 0 1-6.457 1.29c-1.048.188-2.096.377-3.144.545a186.404 186.404 0 0 1-38.351 2.264l-1.048-.053c-4.43-.216-8.843-.583-13.238-1.1a44.184 44.184 0 0 0 9.936 5.356l1.111.408a44.19 44.19 0 0 0 12.966 2.463h25.155a43.81 43.81 0 0 1 40.373 27.252 44.84 44.84 0 0 0 .241-8.228 43.612 43.612 0 0 0-5.628-18.594Z"/></g><defs><clipPath id="a"><path fill="#fff" d="M36 0h197.624v120H36z"/></clipPath></defs></svg>