<svg xmlns="http://www.w3.org/2000/svg" width="270" height="120" fill="none"><path fill="#000" d="M20.272 59.986 0 94.947l20.314.043c11.16.014 29.44.014 40.614 0l20.315-.043-20.244-34.933C49.867 40.808 40.712 25.067 40.656 25.053c-.07-.028-9.238 15.699-20.384 34.933Zm31.348 5.85 10.85 18.73-10.92.042c-6.015.014-15.857.014-21.857 0l-10.921-.042 3.042-5.261 3.056-5.262 9.478-.042c5.229-.014 9.49-.07 9.49-.112 0-.042-2.116-3.732-4.71-8.193l-4.696-8.123 3.042-5.261c1.682-2.904 3.112-5.261 3.168-5.247.07.028 5.005 8.474 10.977 18.771ZM114.707 45.943c-5.243 9.667-9.674 17.846-9.856 18.169l-.336.603h8.383l5.65-10.452c3.126-5.752 5.706-10.452 5.762-10.452.056 0 2.636 4.7 5.748 10.452l5.664 10.452h8.383l-.336-.603c-.182-.323-4.612-8.502-9.856-18.169-5.229-9.652-9.547-17.564-9.603-17.564-.042 0-4.36 7.912-9.603 17.564ZM149.966 47.88v16.835h7.43V54.614h3.449c3.827 0 5.622-.197 7.542-.8 4.991-1.571 7.935-5.317 8.174-10.424.266-5.541-2.524-9.778-7.585-11.518-2.173-.758-3.182-.828-11.468-.828h-7.542V47.88Zm15.029-9.947c1.808.378 3.168 1.473 3.743 3.016.266.701.308 1.038.266 2.16-.07 1.6-.42 2.4-1.472 3.396-1.43 1.332-2.215 1.515-6.729 1.515h-3.407V37.778h3.435c1.977 0 3.729.07 4.164.155ZM183.332 47.88v16.835h7.43V54.614h3.449c3.827 0 5.622-.197 7.543-.8 4.99-1.571 7.935-5.317 8.173-10.424.266-5.541-2.524-9.778-7.585-11.518-2.173-.758-3.182-.828-11.468-.828h-7.542V47.88Zm15.029-9.947c1.808.378 3.168 1.473 3.743 3.016.266.701.308 1.038.266 2.16-.07 1.6-.42 2.4-1.472 3.396-1.43 1.332-2.215 1.515-6.729 1.515h-3.407V37.778h3.435c1.977 0 3.729.07 4.164.155ZM216.138 47.88v16.835h24.113V57.98h-16.683V31.044h-7.43V47.88ZM237.209 31.563c.182.295 3.084 4.896 6.449 10.242l6.126 9.708v13.202h7.29V51.359l6.253-9.835c3.435-5.401 6.351-9.975 6.463-10.157l.21-.323h-8.398l-4.051 6.72c-2.229 3.704-4.08 6.706-4.122 6.678-.042-.028-1.85-3.058-3.995-6.72l-3.912-6.678h-8.636l.323.52ZM160.915 78.127a6.794 6.794 0 0 0-4.851 4.995c-.561 2.37.028 4.727 1.598 6.453 2.215 2.427 6.365 2.75 9.52.73l1.009-.646v-5.724h-5.608v2.105h3.365v2.497l-.463.294c-.757.463-2.145.758-3.098.66-1.654-.168-2.902-1.038-3.575-2.47-.505-1.094-.589-2.96-.168-4.082a4.63 4.63 0 0 1 2.229-2.47c1.388-.672 3.435-.448 4.808.548l.603.435.463-.547c.266-.295.589-.702.715-.884.21-.323.21-.35-.182-.673-.603-.477-1.977-1.109-2.846-1.291-1.01-.21-2.594-.183-3.519.07ZM230.97 84.664l-3.589 6.636 1.135.042c.617.028 1.192.014 1.29-.014.084-.042 1.192-1.992 2.454-4.363 1.275-2.357 2.341-4.279 2.383-4.279.042 0 1.107 1.922 2.369 4.279 1.262 2.357 2.384 4.321 2.468 4.35.084.041.673.055 1.289.027l1.136-.042-3.589-6.636c-1.963-3.633-3.617-6.622-3.673-6.622-.042 0-1.696 2.989-3.673 6.622ZM108.749 84.775v6.594h2.916c3.308 0 4.332-.154 5.677-.87 3.113-1.641 4.318-5.387 2.79-8.67-.462-.996-1.71-2.245-2.804-2.792-1.43-.73-2.271-.856-5.593-.856h-2.986v6.594Zm7.037-4.04c1.655.757 2.496 2.16 2.496 4.167 0 .94-.056 1.206-.421 1.95-.491.968-1.163 1.613-2.089 2.034-.532.238-1.009.309-2.635.35l-2.005.057v-9.049l1.935.07c1.696.056 2.018.098 2.719.42ZM137.068 84.775v6.594H139.311V78.181H137.068v6.594ZM185.014 84.775v6.594H187.257V78.181H185.014v6.594ZM204.081 79.234v1.038l2.074.042 2.061.042.042 5.5.028 5.513H210.529l.029-5.513.042-5.5 2.074-.042 2.061-.042v-2.09h-10.654v1.052ZM257.915 84.775v6.594h9.253v-2.104h-6.87V78.182h-2.383v6.593Z"/></svg>