<svg width="270" height="120" viewBox="0 0 270 120" fill="none" xmlns="http://www.w3.org/2000/svg">
<path d="M98.3112 54.623C96.9123 54.623 95.555 54.7487 94.2393 55.0051C92.9236 55.2563 91.8731 55.6122 91.093 56.0623L91.5142 60.0346C92.6895 59.6944 93.74 59.4589 94.6605 59.3176C95.5862 59.1763 96.5223 59.1083 97.4739 59.1083C101.057 59.1083 102.846 60.49 102.846 63.2481V64.1797C102.009 64.0122 100.833 63.9285 99.3201 63.9285C96.1842 63.9285 93.7088 64.635 91.8887 66.0429C90.0685 67.4507 89.1584 69.3924 89.1584 71.8731C89.1584 76.9445 92.6011 79.4776 99.4813 79.4776C102.279 79.4776 105.191 79.0537 108.213 78.2111V63.6825C108.213 57.6586 104.911 54.644 98.306 54.644L98.3112 54.623ZM102.846 74.9034C101.837 75.186 100.693 75.3273 99.4033 75.3273C96.1582 75.3273 94.5357 74.1445 94.5357 71.7789C94.5357 69.4133 96.3246 68.063 99.9078 68.063C101.364 68.063 102.342 68.1468 102.846 68.3143V74.9034Z" fill="black"/>
<path d="M110.652 55.2168H116.611L122.405 73.4665L128.281 55.2168H133.991L125.088 78.8729H119.55L110.652 55.2168Z" fill="black"/>
<path d="M144.397 54.623C142.998 54.623 141.641 54.7487 140.325 55.0051C139.009 55.2563 137.959 55.6122 137.179 56.0623L137.6 60.0346C138.775 59.6944 139.826 59.4589 140.746 59.3176C141.672 59.1763 142.608 59.1083 143.56 59.1083C147.143 59.1083 148.932 60.49 148.932 63.2481V64.1797C148.095 64.0122 146.919 63.9285 145.406 63.9285C142.27 63.9285 139.795 64.635 137.975 66.0429C136.154 67.4507 135.244 69.3924 135.244 71.8731C135.244 76.9445 138.687 79.4776 145.572 79.4776C148.37 79.4776 151.283 79.0537 154.304 78.2111V63.6825C154.304 57.6586 151.002 54.644 144.397 54.644V54.623ZM148.932 74.9034C147.923 75.186 146.779 75.3273 145.489 75.3273C142.244 75.3273 140.622 74.1445 140.622 71.7789C140.622 69.4133 142.411 68.063 145.994 68.063C147.45 68.063 148.427 68.1468 148.932 68.3143V74.9034Z" fill="black"/>
<path d="M175.085 64.932C175.085 62.7914 174.68 61.3155 173.868 60.4991C173.057 59.6827 171.617 59.2744 169.547 59.2744C169.042 59.2744 168.439 59.332 167.742 59.4419C167.04 59.557 166.385 59.6931 165.771 59.8658V78.8744H160.316V56.4012C161.715 55.8412 163.312 55.4015 165.101 55.0927C166.89 54.784 168.626 54.627 170.306 54.627C177.134 54.627 180.546 57.7253 180.546 63.9219V78.8744H175.091V64.932H175.085Z" fill="black"/>
<path d="M193.973 54.623C192.574 54.623 191.217 54.7487 189.901 55.0051C188.585 55.2563 187.535 55.6122 186.755 56.0623L187.176 60.0346C188.351 59.6944 189.402 59.4589 190.322 59.3176C191.248 59.1763 192.184 59.1083 193.136 59.1083C196.719 59.1083 198.508 60.49 198.508 63.2481V64.1797C197.671 64.0122 196.495 63.9285 194.982 63.9285C191.846 63.9285 189.371 64.635 187.551 66.0429C185.73 67.4507 184.82 69.3924 184.82 71.8731C184.82 76.9445 188.263 79.4776 195.143 79.4776C197.941 79.4776 200.853 79.0537 203.875 78.2111V63.6825C203.875 57.6586 200.572 54.644 193.968 54.644L193.973 54.623ZM198.508 74.9034C197.499 75.186 196.355 75.3273 195.065 75.3273C191.82 75.3273 190.198 74.1445 190.198 71.7789C190.198 69.4133 191.987 68.063 195.57 68.063C197.026 68.063 198.003 68.1468 198.508 68.3143V74.9034Z" fill="black"/>
<path d="M224.198 46.0938V55.1323C223.189 54.7921 221.873 54.6246 220.251 54.6246C216.668 54.6246 213.755 55.7917 211.519 58.1311C209.278 60.4706 208.16 63.527 208.16 67.3005C208.16 71.0739 209.252 74.256 211.436 76.339C213.62 78.422 216.808 79.4635 221.005 79.4635C223.636 79.4635 226.517 79.0395 229.653 78.1969V46.0938H224.198ZM224.198 74.5648C223.579 74.7898 222.461 74.905 220.838 74.905C216.194 74.905 213.87 72.3405 213.87 67.2167C213.87 64.6261 214.473 62.6268 215.674 61.219C216.876 59.8111 218.571 59.1046 220.755 59.1046C222.097 59.1046 223.246 59.3035 224.198 59.696V74.5648Z" fill="black"/>
<path d="M255.005 65.7759C255.005 62.3427 254.111 59.6212 252.317 57.6219C250.523 55.6227 248.089 54.623 245.015 54.623C241.656 54.623 238.983 55.7483 236.996 58.004C235.01 60.2597 234.016 63.3266 234.016 67.21C234.016 71.0933 235.077 74.1079 237.204 76.2485C239.331 78.389 242.353 79.4567 246.269 79.4567C248.843 79.4567 251.277 79.0066 253.57 78.1064L252.982 73.9666C251.022 74.6417 248.926 74.9819 246.685 74.9819C242.093 74.9819 239.742 72.8989 239.633 68.7277H254.995V65.7707L255.005 65.7759ZM239.643 64.5931C239.81 62.7928 240.356 61.3849 241.281 60.3696C242.207 59.3543 243.393 58.8466 244.849 58.8466C246.305 58.8466 247.48 59.3543 248.375 60.3696C249.269 61.3849 249.716 62.7928 249.716 64.5931H239.643Z" fill="black"/>
<path d="M30.7781 45.1078C28.9268 48.74 27.4238 51.6394 26.2693 53.8009C25.1148 55.9624 24.0592 57.7209 23.0919 59.0764C22.1298 60.4319 21.1053 61.5362 20.0236 62.3945C18.9419 63.2529 17.5742 64.2001 15.9205 65.2312L15 63.8129C16.0505 63.033 16.997 62.2637 17.829 61.5048C18.6663 60.7459 19.5608 59.6887 20.5281 58.3385C21.4901 56.983 22.603 55.1773 23.8719 52.9059C25.1357 50.6398 26.6958 47.5781 28.5575 43.7261C29.8941 40.9471 31.1578 38.6652 32.3539 36.8858C33.55 35.1063 34.6993 33.7037 35.8173 32.6832C36.9302 31.6626 38.0067 30.9508 39.0468 30.5531C40.0817 30.1501 41.1426 29.9721 42.2191 30.0035C43.2436 30.0402 44.2577 30.2914 45.2665 30.7624C46.2754 31.2334 47.3727 32.1546 48.5688 33.531C49.7597 34.9074 51.091 36.8858 52.568 39.466C54.0397 42.0461 55.7818 45.4428 57.7944 49.6454C59.0997 52.3564 60.3322 54.6173 61.4815 56.423C62.6308 58.2338 63.8217 59.7254 65.0438 60.9134C66.2711 62.0962 67.5972 63.0592 69.0273 63.7867C70.4575 64.5194 72.106 65.1579 73.973 65.7127L75.117 67.7119C72.8601 67.4712 70.8527 67.0316 69.0949 66.3983C67.3372 65.765 65.6991 64.7968 64.1805 63.4936C62.662 62.1904 61.1955 60.5052 59.7862 58.4431C58.3716 56.3811 56.9155 53.8009 55.4022 50.7026C53.5352 46.9396 51.9595 43.8779 50.6646 41.5175C49.3697 39.1624 48.2204 37.3254 47.2167 36.0117C46.213 34.6981 45.3133 33.8084 44.5177 33.3478C43.7272 32.8873 42.9263 32.6413 42.1151 32.6099C41.2518 32.5785 40.4093 32.7564 39.5877 33.1332C38.766 33.5101 37.9079 34.1904 37.0082 35.1639C36.1138 36.1374 35.1517 37.4405 34.122 39.063C33.0975 40.6854 31.9742 42.7003 30.7573 45.1026L30.7781 45.1078Z" fill="black"/>
<path d="M58.3353 68.9211C61.0812 69.0153 63.7802 68.8792 66.4376 68.5129C69.0898 68.1465 71.456 67.5865 73.531 66.8433L73.8014 68.3192C70.1039 70.6901 64.9191 71.763 58.2417 71.5275C55.2255 71.4228 52.6253 71.0721 50.4359 70.4755C48.2465 69.8841 46.3015 69.1775 44.6062 68.3506C43.3321 67.7645 42.1152 67.1469 40.9503 66.5084C39.7854 65.8699 38.6049 65.2837 37.414 64.7499C36.2179 64.2161 34.9958 63.766 33.7425 63.3944C32.4892 63.0228 31.1631 62.8134 29.7589 62.7663C27.658 62.6931 25.5362 62.8501 23.3936 63.2374C21.251 63.6247 19.1396 64.2161 17.0647 65.0116L16.1338 63.9177L17.8603 63.0804C19.5141 62.1069 21.4122 61.3585 23.56 60.8351C25.7078 60.3118 27.8036 60.0867 29.8525 60.16C31.4699 60.2176 32.9572 60.4321 34.3197 60.809C35.6822 61.1858 36.9719 61.6516 38.194 62.2116C39.4161 62.7716 40.633 63.3839 41.8499 64.0538C43.0669 64.7237 44.341 65.3518 45.6671 65.9432C47.3676 66.7125 49.1774 67.3719 51.0963 67.9267C53.0205 68.4815 55.4335 68.8112 58.3405 68.9159L58.3353 68.9211Z" fill="black"/>
<path d="M62.2667 48.9889C61.2994 48.9523 60.3737 49.1826 59.4949 49.6641C58.616 50.1508 57.6019 51.051 56.4474 52.3699C55.2981 53.6887 53.9512 55.5048 52.4171 57.8181C50.8829 60.1313 48.9692 63.125 46.6862 66.7938C43.6023 71.7971 40.7369 75.4084 38.1003 77.6274C35.4636 79.8465 32.6918 80.9037 29.7796 80.8042C26.7113 80.6943 23.8251 79.1556 21.126 76.1777C18.427 73.1998 16.3832 69.0756 15.0051 63.8054L17.5741 64.3026C18.9939 68.4895 20.788 71.8285 22.967 74.325C25.146 76.8214 27.4446 78.1141 29.868 78.1979C32.1302 78.2764 34.4132 77.3239 36.7222 75.3403C39.0259 73.3568 41.5794 70.1014 44.3824 65.5743C46.8942 61.5287 49.0056 58.242 50.7113 55.7194C52.4171 53.1968 53.9148 51.2342 55.1993 49.8368C56.489 48.4394 57.6799 47.5026 58.772 47.0263C59.8641 46.55 61.0602 46.3302 62.3551 46.3773C65.2622 46.482 67.8416 48.23 70.0986 51.6267C72.3504 55.0233 74.3577 60.2099 76.1103 67.1758L73.3176 66.0192C71.5755 60.2465 69.8125 55.9811 68.0184 53.2282C66.2242 50.4753 64.3053 49.057 62.2615 48.9889H62.2667Z" fill="black"/>
<path d="M52.4067 88.2949C53.7536 88.342 55.0902 87.8867 56.4163 86.9289C57.7424 85.9659 59.4221 84.1394 61.4607 81.4336C63.0416 79.3663 64.3417 77.6601 65.361 76.3099C66.3803 74.9596 67.3372 73.7663 68.2369 72.7405C69.1365 71.7095 70.057 70.7256 71.0087 69.7783C71.9552 68.831 73.1305 67.6796 74.5242 66.3136L76.1103 67.1876C74.8206 68.6635 73.7389 69.9196 72.8653 70.9506C71.9916 71.9816 71.1335 73.0388 70.2858 74.1222C69.4382 75.2056 68.5073 76.425 67.488 77.7753C66.4687 79.1256 65.1686 80.8631 63.5877 82.9827C61.4347 85.8979 59.5209 87.9652 57.8308 89.1846C56.1406 90.4041 54.3049 90.9798 52.3131 90.9065C51.2366 90.8698 50.2589 90.6814 49.3801 90.357C48.5012 90.0272 47.4871 89.394 46.3326 88.4571C45.1781 87.5203 43.8208 86.191 42.2659 84.4796C40.7057 82.7629 38.7348 80.5334 36.353 77.7857C34.538 75.708 32.8999 73.9652 31.4386 72.5521C29.9772 71.1442 28.5211 70.0033 27.0702 69.1345C25.6193 68.2657 24.0904 67.5906 22.4886 67.0986C20.8869 66.6067 19.0147 66.2403 16.8669 66.0048L17.5014 64.0684C19.7064 64.2568 21.6617 64.5394 23.3727 64.9267C25.0836 65.314 26.7062 65.942 28.2403 66.8108C29.7744 67.6796 31.3242 68.8362 32.8895 70.2807C34.4548 71.7252 36.197 73.5674 38.1159 75.8074C40.4977 78.5551 42.4479 80.748 43.956 82.3756C45.4641 84.0033 46.7123 85.2594 47.7055 86.1386C48.6988 87.0179 49.5413 87.5884 50.2329 87.8605C50.9246 88.1274 51.6475 88.2792 52.4015 88.3054L52.4067 88.2949Z" fill="black"/>
</svg>
