<svg width="270" height="120" viewBox="0 0 270 120" fill="none" xmlns="http://www.w3.org/2000/svg">
<path d="M14.5421 55.6434C15.5263 51.5238 18.1212 50.3721 23.4898 50.3721C31.4532 50.3721 33.2874 52.3211 33.2874 62.2436V66.0974C33.2874 75.9756 31.4084 77.969 23.0424 77.969C18.0764 77.969 15.1684 75.6655 14.3184 71.0587V77.4374H5.99707V42H14.5421V55.6434ZM14.5868 68.0908C14.8553 69.7741 16.4211 70.66 19.4186 70.66C23.5345 70.66 24.295 69.7741 24.295 65.9203V62.5094C24.295 58.567 23.5345 57.6811 19.4186 57.6811C16.3764 57.6811 14.8105 58.8328 14.5868 61.2248V68.0908ZM36.1507 69.7741C36.1507 62.9524 37.7613 61.6678 46.3958 61.6678L54.896 61.6235V60.1174C54.896 57.0609 54.1802 56.5293 50.4222 56.5293C46.2168 56.5293 45.4563 57.0609 45.5457 60.1174H37.0455V59.0543C37.0455 51.7453 39.0139 50.3721 49.4827 50.3721H51.5407C61.5173 50.3721 63.3963 51.7896 63.3963 59.5415V77.4374H54.896V72.742C53.7328 76.2857 50.7354 77.9247 46.53 77.969C37.7613 78.2348 36.1507 76.9501 36.1507 69.7741ZM45.0984 69.8627C45.0984 71.6345 45.7694 71.9889 49.259 71.9889H49.7064C53.4644 71.9003 54.896 71.103 54.896 69.021V67.8693L47.8721 67.9136C45.5457 67.9136 45.0984 68.2237 45.0984 69.8627ZM66.2596 69.1539V68.5781H74.3125V69.1539C74.3125 71.1916 75.4309 71.7674 79.5916 71.7674C83.4391 71.7674 84.4681 71.3245 84.4681 69.7298C84.4681 68.6667 83.5286 67.9579 79.5916 67.2492C78.0258 66.9391 73.9546 66.3189 71.2703 65.3001C67.6017 63.8826 66.6622 61.8892 66.6622 58.3455C66.6622 51.5681 68.6307 50.3721 78.7863 50.3721H80.8443C90.8209 50.3721 92.6999 51.7453 92.6999 59.32V60.1174H84.1996V59.32C84.1996 57.1495 83.2601 56.5293 79.8153 56.5293C76.5047 56.5293 75.6099 56.9723 75.6099 58.6113C75.6099 59.7187 76.4152 60.2503 79.3232 60.6932C83.7075 61.402 85.7655 61.9335 88.0919 62.598C92.342 63.8383 93.371 66.2746 93.371 70.3499C93.371 76.7287 91.313 77.969 80.039 77.969H77.981C68.1386 77.969 66.2596 76.5515 66.2596 69.1539ZM95.9658 64.1927C95.9658 52.4983 98.0238 50.3721 108.985 50.3721H111.043C122.093 50.3721 124.151 52.3211 124.151 62.8638V67.0277H104.913V67.1606C104.913 71.0144 105.719 71.7674 110.058 71.7674C114.219 71.7674 114.98 71.2802 114.98 69.021H123.927C123.927 76.5515 121.914 77.969 111.043 77.969H108.985C98.0238 77.969 95.9658 75.7984 95.9658 64.1927ZM104.913 60.7818H115.203C115.159 57.1938 114.264 56.5293 110.058 56.5293C105.719 56.5293 104.913 57.1938 104.913 60.6489V60.7818ZM127.909 77.4374V50.9036H136.409V55.9535C137.349 51.9668 139.63 50.3721 143.612 50.3721C150.412 50.3721 151.889 51.4352 152.247 56.485C153.231 52.2769 155.96 50.3721 160.478 50.3721C168.666 50.3721 170.187 51.9225 170.187 60.2503L170.231 77.4374H161.731V61.5349C161.731 58.0797 161.15 57.4153 157.749 57.4153C154.886 57.4153 153.41 58.8771 153.32 61.8007L153.365 77.4374H144.91V61.5349C144.91 58.0797 144.238 57.4153 140.838 57.4153C137.886 57.4153 136.409 58.9657 136.409 62.0664V77.4374H127.909ZM173.542 64.1927C173.542 52.4983 175.6 50.3721 186.606 50.3721H188.664C199.624 50.3721 201.682 52.3211 201.682 62.8638V67.0277H182.445V67.1606C182.445 71.0144 183.25 71.7674 187.679 71.7674C191.795 71.7674 192.556 71.2802 192.556 69.021H201.459C201.459 76.5515 199.446 77.969 188.664 77.969H186.606C175.6 77.969 173.542 75.7984 173.542 64.1927ZM182.445 60.7818H192.78C192.735 57.1938 191.84 56.5293 187.679 56.5293C183.25 56.5293 182.445 57.1938 182.445 60.6489V60.7818ZM205.396 77.4374V50.9036H213.896V56.2636C214.925 51.9668 217.52 50.3721 222.441 50.3721C230.225 50.3721 231.702 51.9225 231.702 60.2503L231.747 77.4374H223.246V62.2436C223.246 58.1683 222.53 57.4153 218.594 57.4153C215.507 57.4153 213.941 58.7885 213.896 61.6235V77.4374H205.396ZM233.939 57.9468V50.9036H237.026V45.1894H245.079V50.9036H252.729V57.9468H245.079V67.2492C245.079 69.464 245.571 69.907 248.21 69.907H253.131V77.4374H247.316C238.323 77.4374 236.578 76.0199 236.578 68.5338V57.9468H233.939ZM256.353 77.4374V69.907H264.003V77.4374H256.353Z" fill="black"/>
</svg>
