<svg xmlns="http://www.w3.org/2000/svg" width="270" height="120" fill="none"><g fill="#000" clip-path="url(#a)"><path d="M0 60.156h11.174c6.825 0 10.651 3 10.651 8.043 0 3.696-2.044 5.956-5.479 6.74 3.958.522 6.564 2.781 6.564 7 0 5.348-4 8.653-11.217 8.653H0V60.156Zm6.52 12.565h4.566c2.74 0 4.261-1.434 4.261-3.781 0-2.348-1.522-3.782-4.261-3.782H6.52v7.566-.003Zm0 12.826h4.958c3.13 0 4.826-1.434 4.826-3.912 0-2.478-1.783-3.957-4.826-3.957H6.52v7.869ZM28.911 90.589V60.156h11.824c6.478 0 10.913 3.958 10.913 10.13 0 3.869-2.044 7.043-5.434 8.564l6.13 11.739h-7.26l-5.173-10.217h-4.476v10.217H28.91Zm6.52-15.65h4.478c3.086 0 5.087-1.826 5.087-4.654 0-2.827-1.998-4.695-5.087-4.695h-4.477v9.348ZM56.778 90.589l9.913-30.433h8l9.913 30.433h-6.912l-2.044-6.651h-10.13l-2.044 6.651h-6.696ZM66.95 78.677h7.216l-3.65-11.782-3.567 11.782ZM89.385 90.589V60.156h5.783l11.693 18.825V60.156h6.129V90.59h-5.782L95.512 71.722v18.867h-6.13.003ZM119.514 90.589V60.156h10.347c8.826 0 14.303 5.956 14.303 15.174s-5.522 15.259-14.303 15.259h-10.347Zm6.521-5.434h3.826c5.088 0 7.609-3.696 7.609-9.825 0-6.13-2.521-9.737-7.609-9.737h-3.826v19.562ZM149.336 78.85V60.156h6.521v18.825c0 4.216 1.826 6.26 5.261 6.26s5.303-1.999 5.303-6.26V60.156h6.521V78.85c0 7.782-4.131 12-11.824 12-7.694 0-11.782-4.216-11.782-12ZM178.812 90.589V60.156h5.783l11.693 18.825V60.156h6.13V90.59h-5.783l-11.696-18.867v18.867h-6.129.002ZM207.939 75.372c0-9.652 4.912-15.477 13.391-15.477 6.563 0 11.304 4.215 12.13 11.085h-6.347c-.608-3.738-2.651-5.652-5.913-5.652-4.393 0-6.695 3.566-6.695 10.044 0 6.478 2.347 10.044 7.216 10.044 3.608 0 5.915-2.348 5.915-5.999v-.738h-5.915v-5h11.871v16.912h-4.696l-.566-3.52c-1.563 2.435-4.088 3.781-7.737 3.781-7.697 0-12.652-6.129-12.652-15.477l-.002-.003ZM269.899 44.829c0 8.704-7.058 15.76-15.761 15.76-6.173 0-11.515-3.547-14.102-8.714l3.817-3.948c.014-.017.033-.035.049-.054l.058-.06c.739-.737 1.616-1.099 2.628-1.093 1.017.008 1.919.407 2.714 1.201l5.552 5.552 2.923-2.923-4.875-4.876h.016l-.883-.886v.02l-.505-.505c-1.369-1.37-2.945-2.087-4.72-2.143-1.775-.056-3.359.606-4.745 1.996a36.327 36.327 0 0 0-1.104 1.212l-2.319 2.355a15.952 15.952 0 0 1-.264-2.894c0-8.705 7.056-15.76 15.76-15.76 6.133 0 11.446 3.501 14.052 8.615h-9.375c-1.94 0-3.557.608-4.854 1.82h.002a5.913 5.913 0 0 0-1.629 2.578l3.591 3.592h.023l-.002-.07a.785.785 0 0 1-.004-.07c0-1.051.362-1.934 1.087-2.647.723-.713 1.646-1.068 2.768-1.068h9.814c.189.975.288 1.98.288 3.01Z"/></g><defs><clipPath id="a"><path fill="#fff" d="M0 29h270v61.991H0z"/></clipPath></defs></svg>