<svg width="270" height="120" viewBox="0 0 270 120" fill="none" xmlns="http://www.w3.org/2000/svg">
<path fill-rule="evenodd" clip-rule="evenodd" d="M166.466 80.9797C166.466 86.4514 162.484 92.0298 150.866 92.0298C143.442 92.0298 133.116 89.563 133.116 69.6038C133.116 53.6167 140.212 48.1417 151.619 48.1417C156.889 48.1417 162.052 49.2154 166.466 51.0404V80.9797ZM166.466 45.6749C161.945 44.0659 156.892 43.2081 151.619 43.2081C140.43 43.2081 127.735 47.8223 127.735 69.6038C127.735 93.4259 142.045 96.9665 150.866 96.9665C169.907 96.9665 171.736 84.7329 171.736 80.7636V24H166.466V45.6749ZM110.413 70.0324C110.413 53.6167 102.775 48.0353 91.265 48.0353C79.8587 48.0353 72.1168 53.6167 72.1168 70.0324C72.1168 86.4514 79.8618 92.0298 91.265 92.0298C102.775 92.0298 110.413 86.4514 110.413 70.0324ZM115.686 70.0324C115.686 92.1364 102.451 96.9665 91.2619 96.9665C80.0759 96.9665 66.8432 92.1364 66.8432 70.0324C66.8432 47.9288 80.0759 43.1017 91.2588 43.1017C102.448 43.1017 115.684 47.9318 115.684 70.0355L115.686 70.0324ZM42.96 91.8168C47.9092 91.8168 52.9624 90.8497 57.5905 89.0249V94.1773C52.7482 96.0021 47.588 96.9665 42.4216 96.9665C31.3395 96.9665 18 92.4588 18 70.0324C18 47.7128 31.3395 43.1017 42.4216 43.1017C47.5849 43.1017 52.7482 44.1754 57.5936 45.8939V51.0404C52.9654 49.3219 47.9092 48.2512 42.96 48.2512C31.1224 48.2512 23.2703 53.7231 23.2703 70.0324C23.2703 86.4514 31.1254 91.8168 42.96 91.8168ZM246.62 96.1057H252V24H246.62V96.1088V96.1057ZM208.825 92.0633C220.445 92.0633 224.425 86.4849 224.425 81.0128V59.2529C224.425 53.781 220.445 48.2026 208.825 48.2026C201.465 48.2026 191.258 50.6359 191.084 70.1329C191.255 89.6241 201.465 92.0633 208.825 92.0633ZM185.715 69.5247C186.159 46.7121 200.144 43.269 208.825 43.269C227.866 43.269 229.695 55.5026 229.695 59.4719V96.1088H224.425V92.4133C221.335 95.0288 216.466 97 208.825 97C200.144 97 186.159 93.5567 185.715 70.7473C185.707 70.5436 185.704 70.34 185.706 70.136C185.703 69.9655 185.709 69.5216 185.715 69.5216V69.5247Z" fill="black"/>
</svg>
