<svg xmlns="http://www.w3.org/2000/svg" width="270" height="120" fill="none"><g fill="#000" clip-path="url(#a)"><path d="M16.921 50.982c0 .506.084 2.746.337 4.37-.112.338-.869.449-1.065.197-.756-2.605-2.55-4.005-5.267-4.005-3.11 0-6.444 2.66-6.444 8.236 0 5.575 3.222 8.573 6.584 8.573 3.39 0 4.959-2.438 5.715-4.343.224-.223.897-.14 1.065.196-.196 2.073-.673 3.753-1.065 4.399-1.513.42-3.502 1.036-5.687 1.036-2.746 0-5.547-.644-7.536-2.129C1.54 65.971 0 63.645 0 60.172c0-3.418 1.457-5.828 3.39-7.424 1.988-1.654 4.847-2.494 7.76-2.494 2.857 0 4.93.673 5.771.728ZM29.08 51.544c-3.446 0-5.295 3.22-5.295 7.899 0 3.418 1.205 8.91 5.77 8.91 3.671 0 5.1-3.587 5.1-8.125 0-4.791-2.101-8.684-5.575-8.684Zm10.058 8.319c0 6.108-4.09 9.778-10.114 9.778-5.63 0-9.721-3.698-9.721-9.553 0-5.548 4.145-9.834 10.001-9.834 5.827 0 9.834 3.922 9.834 9.609ZM47.459 64.122c0 1.542.055 2.55.56 3.138.504.561 1.317.813 2.325.813 4.847 0 6.5-4.315 6.5-8.124 0-5.043-2.661-8.04-7.733-8.04-.756 0-1.288.139-1.456.364-.169.223-.196.755-.196 1.624v10.225Zm-4.007-8.88c0-2.662-.056-3.194-1.345-3.334l-.532-.056c-.28-.14-.28-.953.056-.98 2.353-.141 4.539-.254 7.509-.254 2.297 0 4.594.225 6.527.926 3.67 1.316 5.687 4.623 5.687 8.124 0 3.754-1.793 6.78-5.015 8.376-1.905.953-4.203 1.317-7.087 1.317-1.318 0-2.718-.167-3.726-.167-1.346 0-2.774.027-4.372.083-.223-.168-.223-.84 0-.98l.87-.14c1.26-.224 1.428-.42 1.428-2.998v-9.918ZM69.675 57.987c0 .785.028.84.785.84h1.933c1.457 0 1.764-.195 2.073-1.541l.14-.699c.196-.225.897-.225 1.037.027a48.252 48.252 0 0 0-.084 2.97c0 1.064.027 2.073.084 2.97-.14.251-.84.28-1.037.027l-.14-.7c-.308-1.345-.616-1.568-2.073-1.568H70.46c-.757 0-.785.027-.785.867v3.335c0 1.288.113 2.184.448 2.661.365.504.897.728 2.942.728 2.438 0 3.39-.083 4.931-3.25.224-.307.925-.195 1.037.141-.112 1.458-.785 3.726-1.177 4.482-1.484-.056-4.174-.083-6.472-.083h-3.641a176.9 176.9 0 0 0-4.82.083c-.224-.168-.224-.84 0-.98l1.317-.196c1.26-.167 1.429-.364 1.429-2.942V54.71c0-2.549-.168-2.744-1.429-2.97l-.7-.14c-.252-.167-.224-.812.056-.98 1.317.056 2.69.085 4.034.085h5.94c1.792 0 3.39-.03 3.754-.086.028.45.224 2.466.364 4.343-.112.31-.756.366-1.037.113-.308-.981-.7-1.822-1.065-2.214-.532-.531-1.372-.868-2.745-.868H70.6c-.925 0-.925.056-.925 1.092v4.903ZM95.31 61.377c.644 0 .811-.084.56-.812l-.729-2.27c-.392-1.204-.756-2.353-1.008-2.942-.28.617-.729 1.794-1.15 3.082l-.699 2.101c-.28.757-.113.841.588.841h2.437Zm-2.999 1.484c-.671 0-.756.03-.924.56l-1.036 3.251c-.168.56-.196.785-.196 1.008 0 .168.224.337 1.008.477l.84.14c.168.196.224.841-.056.98-.98-.056-2.1-.056-3.277-.083-.953 0-1.598.083-2.886.083-.308-.168-.28-.756-.084-.98l.756-.084c.673-.084 1.26-.31 1.71-1.4.504-1.121.98-2.466 1.737-4.483l2.52-6.836c.673-1.765 1.177-2.745 1.093-3.559 1.345-.307 2.381-1.68 2.438-1.68.364 0 .532.14.644.56.224.813.56 1.849 1.26 3.838l3.811 10.982c.588 1.681.841 2.299 1.877 2.494l1.065.169c.167.139.224.81-.029.98a106.287 106.287 0 0 0-4.313-.084 81.34 81.34 0 0 0-3.783.083c-.308-.168-.365-.756-.056-.98l.896-.14c.645-.112.757-.309.757-.477 0-.196-.196-.868-.532-1.904l-.757-2.409c-.14-.45-.364-.505-1.344-.505H92.31Z"/><path d="M122.12 64.43c0 1.821 0 3.585.057 4.51-.196.336-.981.644-1.653.644-.028 0-.953-1.428-2.27-3.053l-6.471-8.012c-1.597-2.018-2.55-3.167-3.054-3.587-.14.281-.14.757-.14 1.793v5.435c0 2.27.112 4.37.42 5.127.252.589.897.756 1.625.896l.785.113c.224.224.168.812 0 .98a98.34 98.34 0 0 0-3.754-.083c-1.038 0-2.074.027-3.139.083-.168-.168-.224-.756 0-.98l.477-.084c.757-.169 1.289-.336 1.541-.925.279-.756.392-2.857.392-5.127v-7.116c0-1.541 0-1.988-.196-2.382-.196-.475-.616-.755-1.597-.952l-.785-.112c-.196-.223-.168-.895.113-.98a94.57 94.57 0 0 0 3.866.083c.953 0 1.765-.028 2.353-.084.28 1.261 2.101 3.392 4.622 6.39l2.354 2.772c1.261 1.456 2.045 2.437 2.689 3.081.113-.28.113-.755.113-1.26v-3.866c0-2.27-.113-4.37-.421-5.127-.252-.589-.868-.756-1.625-.897l-.756-.112c-.224-.223-.168-.812 0-.98 1.513.055 2.606.083 3.754.083 1.037 0 2.046-.028 3.138-.084.168.169.224.758 0 .981l-.504.084c-.729.17-1.261.336-1.513.925-.309.757-.421 2.858-.421 5.127v6.696ZM132.01 64.122c0 1.542.055 2.55.561 3.138.504.561 1.316.813 2.324.813 4.847 0 6.5-4.315 6.5-8.124 0-5.043-2.661-8.04-7.732-8.04-.757 0-1.289.139-1.456.364-.169.223-.197.755-.197 1.624v10.225Zm-4.006-8.88c0-2.662-.057-3.194-1.345-3.334l-.532-.056c-.28-.14-.28-.953.055-.98 2.353-.141 4.54-.254 7.51-.254 2.296 0 4.593.225 6.527.926 3.67 1.316 5.687 4.623 5.687 8.124 0 3.754-1.793 6.78-5.015 8.376-1.905.953-4.202 1.317-7.088 1.317-1.317 0-2.717-.167-3.727-.167-1.344 0-2.773.027-4.369.083-.224-.168-.224-.84 0-.98l.868-.14c1.26-.224 1.429-.42 1.429-2.998v-9.918ZM161.455 52.805c0-.673 0-.813-.673-.813h-1.738c-2.045 0-2.632 1.121-3.472 3.166-.337.169-.87.112-1.037-.252.588-1.934.728-3.67.924-4.764a.68.68 0 0 1 .392-.14c.141 0 .281.029.394.113.139.477.224.589 2.353.589h10.421c1.848 0 2.268-.03 2.521-.617a.701.701 0 0 1 .364-.084c.169 0 .365.112.42.195-.279.953-.475 3.223-.42 4.82-.14.252-.895.309-1.037.084-.476-1.794-.867-3.11-2.969-3.11h-1.681c-.672 0-.757.084-.757.813V65.16c0 2.606.169 2.801 1.43 2.998l1.121.14c.195.168.195.812 0 .98a144.963 144.963 0 0 0-4.483-.083c-1.344 0-2.801.027-4.763.083-.224-.168-.224-.812 0-.98l1.261-.14c1.261-.197 1.429-.392 1.429-2.998V52.805ZM180.758 60.313c-1.149 0-1.177.027-1.177.811v4.035c0 2.606.167 2.801 1.428 3.026l.897.113c.224.167.224.81 0 .98a106.499 106.499 0 0 0-8.432 0c-.224-.17-.224-.813 0-.98l.671-.085c1.261-.253 1.43-.448 1.43-3.054V54.738c0-2.606-.169-2.803-1.43-3.054l-.671-.085c-.224-.167-.224-.812 0-.98 1.372.056 2.829.084 4.173.084 1.261 0 2.662-.028 3.894-.085.225.17.225.814 0 .981l-.588.085c-1.205.251-1.372.448-1.372 3.054v3.25c0 .811.028.84 1.177.84h5.827c1.177 0 1.177-.029 1.177-.84v-3.25c0-2.606-.14-2.803-1.429-3.026l-.758-.113c-.224-.167-.224-.812 0-.98 1.542.056 2.915.084 4.258.084 1.374 0 2.663-.028 3.952-.085.224.17.224.814 0 .981l-.561.085c-1.289.251-1.457.448-1.457 3.054v10.421c0 2.606.168 2.801 1.457 3.026l.672.113c.225.167.225.81 0 .98a101.983 101.983 0 0 0-8.18 0c-.223-.17-.223-.813 0-.98l.617-.085c1.289-.253 1.429-.448 1.429-3.054v-4.035c0-.784 0-.81-1.177-.81h-5.827ZM202.162 57.987c0 .785.027.84.785.84h1.932c1.457 0 1.766-.195 2.073-1.541l.14-.699c.197-.225.897-.225 1.036.027a48.476 48.476 0 0 0-.082 2.97c0 1.064.026 2.073.082 2.97-.139.251-.839.28-1.036.027l-.14-.7c-.307-1.345-.616-1.568-2.073-1.568h-1.932c-.758 0-.785.027-.785.867v3.335c0 1.288.112 2.184.447 2.661.364.504.897.728 2.942.728 2.438 0 3.391-.083 4.93-3.25.225-.307.926-.195 1.037.141-.111 1.458-.784 3.726-1.176 4.482-1.486-.056-4.174-.083-6.472-.083h-3.641c-1.345 0-2.719.027-4.82.083-.223-.168-.223-.84 0-.98l1.317-.196c1.261-.167 1.43-.364 1.43-2.942V54.71c0-2.549-.169-2.744-1.43-2.97l-.699-.14c-.254-.167-.224-.812.056-.98 1.315.056 2.688.085 4.034.085h5.938c1.794 0 3.39-.03 3.754-.086.029.45.226 2.466.364 4.343-.112.31-.755.366-1.035.113-.308-.981-.702-1.822-1.066-2.214-.532-.531-1.372-.868-2.745-.868h-2.241c-.924 0-.924.056-.924 1.092v4.903ZM222.472 51.544c-3.446 0-5.294 3.22-5.294 7.899 0 3.418 1.205 8.91 5.771 8.91 3.67 0 5.098-3.587 5.098-8.125 0-4.791-2.1-8.684-5.575-8.684Zm10.058 8.319c0 6.108-4.09 9.778-10.114 9.778-5.632 0-9.721-3.698-9.721-9.553 0-5.548 4.145-9.834 10.002-9.834 5.827 0 9.833 3.922 9.833 9.609ZM240.683 58.8c0 .98.084 1.064 1.736 1.064 1.009 0 1.598-.252 2.131-.785.475-.476 1.008-1.373 1.008-3.025 0-2.52-1.485-4.146-3.67-4.146-1.15 0-1.15.084-1.205 1.428V58.8Zm-3.839-3.559c0-2.801-.055-3.11-1.232-3.276l-.757-.113c-.279-.14-.279-.84.056-.98 2.101-.141 4.287-.254 6.948-.254 2.383 0 4.427.364 5.492 1.01 1.625.952 2.465 2.352 2.465 4.146 0 2.494-1.681 3.558-2.97 4.202-.28.14-.28.308-.14.617 1.849 3.754 2.999 5.855 4.342 7.003.728.589 1.458.758 1.878.785.251.14.251.56.111.728-.448.196-1.343.252-2.213.252-2.577 0-4.201-.924-5.434-2.941-.897-1.484-1.542-2.858-2.186-4.343-.336-.756-.785-.98-1.484-.98-.982 0-1.037.057-1.037.616v3.446c0 2.578.168 2.774 1.427 2.998l.758.14c.196.14.196.812 0 .98a101.33 101.33 0 0 0-8.209 0c-.224-.168-.224-.84 0-.98l.758-.14c1.261-.224 1.427-.42 1.427-2.998v-9.918ZM262.536 65.16c0 2.605.166 2.8 1.427 2.997l1.122.14c.195.168.195.812 0 .98a143.82 143.82 0 0 0-4.538-.083c-1.345 0-2.747.027-4.4.083-.225-.168-.225-.812 0-.98l.953-.14c1.261-.197 1.428-.392 1.428-2.998v-1.4c0-1.4-.028-1.85-.756-3.333l-3.334-6.893c-.56-1.148-.813-1.568-1.792-1.765l-.952-.169c-.254-.223-.225-.895.11-.98 1.262.056 2.298.084 3.952.084 1.708 0 3.136-.028 4.089-.085.253.113.308.758.056.981l-.953.224c-.503.112-.672.225-.672.253 0 .223.142.644.728 1.96l1.318 2.998c.42.925.953 2.045 1.288 2.747.813-1.373 1.597-2.998 2.353-4.428 1.066-1.988 1.457-2.913 1.457-3.25 0-.168-.279-.28-.953-.391l-.643-.113c-.225-.14-.253-.84.028-.98 1.12.056 2.129.084 3.137.084 1.066 0 1.934-.028 2.746-.085.336.113.336.785.111.981l-.728.14c-.504.113-1.036.28-1.345.673-.42.532-1.119 1.542-2.465 3.978l-1.765 3.195c-.728 1.316-1.007 2.016-1.007 3.614v1.96Z"/></g><defs><clipPath id="a"><path fill="#fff" d="M0 50h270v19.64H0z"/></clipPath></defs></svg>