<svg width="270" height="120" viewBox="0 0 270 120" fill="none" xmlns="http://www.w3.org/2000/svg">
<mask id="mask0_4549_2567" style="mask-type:luminance" maskUnits="userSpaceOnUse" x="38" y="11" width="194" height="99">
<path d="M231.934 11H38V109.583H231.934V11Z" fill="white"/>
</mask>
<g mask="url(#mask0_4549_2567)">
<path d="M39.6162 15.6206H51.3167V33.0698H68.312V15.6497H80.019V60.8721H68.3573V42.4029H51.3444V60.8721H39.6162V15.6206ZM212.53 108.19V77.1446H201.524V79.8662C200.611 79.1857 199.762 78.4197 198.796 77.8559C192.988 74.4683 184.964 75.9761 180.479 81.3336C177.053 85.4242 175.889 90.1932 176.67 95.4361C177.922 103.844 185.073 110.23 194.007 109.089C196.98 108.709 199.549 107.502 201.33 104.947C201.367 104.892 201.438 104.863 201.585 104.756V108.19H212.53ZM194.817 99.6555C190.588 99.6264 187.743 96.7887 187.788 92.6448C187.835 88.4818 190.765 85.6115 194.94 85.6375C199.147 85.6618 201.959 88.6193 201.923 92.9811C201.892 96.9197 198.951 99.6832 194.817 99.6555ZM136.608 108.216H137.296C140.491 108.216 143.688 108.202 146.883 108.229C147.463 108.234 147.626 108.081 147.625 107.49C147.602 101.262 147.649 95.0319 147.584 88.8035C147.564 87.2042 147.37 85.6122 147.004 84.0552C146.165 80.4789 144.087 77.9141 140.515 76.7342C138.542 76.0828 136.506 75.9924 134.458 76.1313C131.245 76.3512 128.59 77.6682 126.628 80.2815C126.429 80.5467 126.223 80.8051 126.019 81.0669C125.978 81.0537 125.937 81.0409 125.896 81.0281V77.1349H114.953C114.942 77.3482 114.924 77.5262 114.924 77.7056C114.924 87.6672 114.927 97.6306 114.913 107.592C114.911 108.119 115.087 108.229 115.572 108.226C118.808 108.207 122.043 108.216 125.28 108.215C125.476 108.215 125.673 108.197 125.914 108.184V107.415C125.914 102.24 125.894 97.0665 125.932 91.8919C125.938 90.8689 126.072 89.823 126.316 88.8291C126.748 87.0515 127.789 85.7279 129.592 85.1527C130.649 84.8147 131.733 84.7825 132.829 84.9619C134.62 85.2545 135.743 86.3163 136.215 88.0278C136.45 88.8662 136.577 89.7313 136.591 90.6022C136.622 96.181 136.608 101.761 136.608 107.342V108.216ZM52.542 86.2533L38 108.174H69.3495V99.0432H56.3576L70.8362 77.1252H39.9508V86.2533H52.542ZM219.927 57.9032H230.86V108.223H219.927V57.9032ZM167.934 108.187V86.1805H174.071V77.0656H167.894V67.789C167.677 67.7762 167.5 67.7533 167.323 67.7533C164.067 67.7519 160.811 67.7616 157.554 67.7405C157.048 67.7374 156.906 67.8859 156.911 68.3902C156.933 71.0488 156.921 73.7071 156.921 76.364V77.1172H151.308V86.2242H156.921V87.0886C156.921 93.9071 156.927 100.724 156.911 107.542C156.909 108.067 157.032 108.232 157.58 108.229C160.816 108.202 164.051 108.216 167.288 108.215C167.468 108.215 167.647 108.2 167.934 108.187ZM139.428 60.4503V59.6551C139.428 55.6972 139.402 51.7392 139.442 47.7829C139.453 46.5878 139.569 45.3961 139.788 44.2211C140.271 41.666 141.534 39.6588 144.179 38.9187C146.598 38.2414 149.013 38.298 151.348 39.3502C151.434 39.389 151.531 39.4049 151.644 39.4389V29.0134C146.62 28.6271 142.293 29.7309 139.546 34.45L139.41 34.3401V29.4158H128.517V60.4503H139.428ZM156.924 29.3964H167.792V60.4274H156.924V29.3964ZM162.373 11.2247C159.031 11.2037 156.214 13.998 156.193 17.3547C156.18 18.9928 156.814 20.5698 157.958 21.7425C159.102 22.9151 160.663 23.5883 162.301 23.6155C165.656 23.6624 168.503 20.8439 168.518 17.4581C168.534 14.0643 165.754 11.2457 162.373 11.2247ZM109.932 94.2337C109.932 86.2449 106.803 81.122 101.035 78.2742C96.2191 75.8954 91.1509 75.5446 85.9617 76.6857C82.4723 77.4549 79.3759 79.0275 76.8773 81.6342C74.041 84.5951 72.6997 88.1781 72.6367 92.2635C72.538 98.5792 75.0917 103.505 80.6285 106.527C87.2964 110.168 94.2555 110.264 101.077 106.985C106.955 104.158 109.835 99.2354 109.932 94.2337ZM91.2755 99.6555C87.0526 99.6493 84.1969 96.8355 84.1983 92.6836C84.2018 88.5545 87.1655 85.623 91.3192 85.6375C95.4306 85.6521 98.3798 88.6061 98.3718 92.6981C98.3638 96.8549 95.5016 99.6604 91.2755 99.6555ZM123.478 46.4821C123.478 38.4935 120.349 33.3688 114.582 30.5228C109.765 28.1439 104.697 27.7932 99.508 28.9342C96.0186 29.7018 92.9222 31.276 90.4236 33.8827C87.5873 36.8435 86.246 40.4265 86.183 44.512C86.0843 50.8263 88.638 55.7522 94.1749 58.7759C100.843 62.417 107.802 62.5108 114.623 59.2333C120.501 56.4067 123.381 51.4822 123.478 46.4821ZM104.82 51.9026C100.599 51.8978 97.7415 49.084 97.7446 44.9321C97.7481 40.803 100.712 37.8697 104.865 37.8843C108.977 37.9004 111.926 40.8532 111.918 44.9466C111.91 49.1034 109.046 51.9088 104.82 51.9026ZM175.731 45.8356H231.35V36.6916H175.731V45.8356Z" fill="black"/>
</g>
</svg>
