<svg xmlns="http://www.w3.org/2000/svg" width="270" height="120" fill="none"><g fill="#000" clip-path="url(#a)"><path d="M63.942 52.624h-9.949l4.949-17.034 5 17.034Zm1.703-27.626h-13.29L36.086 69.93h12.31l2.323-7.681H67.16l2.604 7.68h12.151L65.645 25ZM164.456 52.624h-9.949l4.949-17.034 5 17.034Zm1.704-27.626h-13.291l-16.27 44.932h12.31l2.322-7.681h16.442l2.604 7.68h12.152L166.16 25ZM252.032 52.624h-9.95l4.949-17.034 5.001 17.034Zm1.703-27.626h-13.292L224.174 69.93h12.309l2.324-7.681h16.44l2.604 7.68h12.153L253.735 25ZM115.38 47.043l16.107-22.02h-14.315l-14.748 20.955V25.022H90.322V69.93h12.102V48.184l14.872 21.746h14.808L115.38 47.043ZM202.97 60.357V25.023h-12.048v44.965h25.934v-9.63H202.97ZM27.857 92.008v-7.184l-6.34-3.593-6.34 3.593v7.184l6.34 3.592 6.34-3.592Z"/><path d="M27.857 92.008v-7.184l-6.34-3.593-6.34 3.593v7.184l6.34 3.592 6.34-3.592ZM15.417 64.335c-2.3 1.684-4.286 2.007-6.716 1.547-2.014-.382-3.255-1.094-4.485-1.75L0 73.09c4.73 3.4 10.132 4.092 15.417 2.504V64.335ZM15.418 75.594c7.028-1.753 12.2-8.841 12.2-15.652V24.999h-12.2v50.595Z"/></g><defs><clipPath id="a"><path fill="#fff" d="M0 25h270v70.6H0z"/></clipPath></defs></svg>