<svg width="270" height="120" viewBox="0 0 270 120" fill="none" xmlns="http://www.w3.org/2000/svg">
<g clip-path="url(#clip0_4638_6215)">
<path d="M9.99951 89.8905V30.998H68.892V89.8905H9.99951ZM35.495 76.6765L30.6978 84.2467H60.7329L46.1816 75.1551L35.495 76.6643V76.6765ZM15.6434 84.1608L23.8883 84.2467L20.686 74.1491L15.717 71.0327V84.1608H15.6311H15.6434ZM63.2604 79.1917V70.9468L52.9174 64.4686L42.2309 65.9777L39.3721 70.4315L47.4453 69.3395L63.2604 79.1795V79.1917ZM15.6311 64.395L25.3852 70.456L27.9126 78.1979L30.6855 73.7442L27.3237 63.4748L15.6311 56.15V64.395ZM15.6311 49.5001L32.0351 59.7695L34.5626 67.5114L37.3354 63.0576L33.9737 52.7883L15.6311 41.2674V49.5124V49.5001ZM63.2481 64.2232V55.9783L59.5428 53.7085L48.8563 55.2176L45.9975 59.6713L54.0707 58.5794L63.2359 64.2109L63.2481 64.2232ZM38.7709 48.9971L41.2984 56.739L44.0713 52.2852L40.7095 42.0158L32.2069 36.7155H18.9193L38.7709 48.9971ZM63.2481 49.3283V36.7155L60.4753 36.6296L52.8193 48.9112L60.8924 47.8192L63.2481 49.3283ZM45.4086 38.3105L47.9361 46.0524L53.7394 36.7155H42.8811L45.4086 38.3105Z" fill="#010101"/>
<path d="M132.582 55.1449C131.404 54.6418 130.14 54.47 128.877 54.3842C125.012 54.2124 121.981 55.9792 121.981 55.9792V47.4766H116.35V63.8806C116.35 64.9725 116.435 66.0645 116.681 67.1565C117.356 69.9293 118.951 71.9537 121.724 72.8739C125.429 74.0518 129.122 74.0518 132.741 72.7881C134.925 72.0274 136.447 70.4324 137.195 68.1625C138.042 65.721 138.042 63.1199 137.453 60.5924C136.778 58.0649 135.097 56.2123 132.57 55.1203L132.582 55.1449ZM132.079 65.6596C131.748 67.1687 130.815 68.1871 129.306 68.6042C127.956 68.9355 126.619 68.9355 125.183 68.6901C123.245 68.273 122.239 67.0951 122.067 65.0707C122.067 64.7394 122.067 64.3959 121.981 64.2241C121.981 63.5493 122.067 63.0463 122.153 62.5432C122.484 61.0341 123.417 60.1016 124.84 59.6845C126.349 59.3532 127.785 59.3532 129.294 59.6845C130.803 60.1016 131.735 61.12 131.981 62.6291C132.238 63.6352 132.238 64.6535 132.067 65.6596H132.079Z" fill="#010101"/>
<path d="M259.029 47.5742H253.397V73.3151H259.029V47.5742Z" fill="#010101"/>
<path d="M209.302 54.8857H203.67V73.3142H209.302V54.8857Z" fill="#010101"/>
<path d="M161.685 56.066C161.685 56.066 158.74 54.2992 154.789 54.471C153.526 54.5569 152.262 54.8023 151.084 55.2317C148.471 56.2378 146.876 58.1763 146.201 60.7897C145.526 63.3171 145.612 65.8323 146.459 68.3598C147.219 70.5437 148.728 72.151 150.912 72.9853C154.532 74.3349 158.237 74.3349 161.93 73.0712C164.703 72.151 166.31 70.1266 166.973 67.3537C167.23 66.2618 167.304 65.1698 167.304 64.0778V47.6738H161.672V56.0905L161.685 56.066ZM161.685 65.0716C161.513 67.0961 160.421 68.2739 158.568 68.6911C157.219 68.9487 155.881 68.9487 154.446 68.6052C152.937 68.188 152.004 67.2556 151.673 65.6606C151.501 64.6545 151.501 63.6361 151.673 62.6301C151.931 61.1209 152.851 60.1026 154.36 59.6854C155.869 59.2683 157.305 59.2683 158.814 59.6854C160.323 60.1026 161.255 61.0351 161.501 62.5442C161.587 63.0472 161.672 63.5503 161.672 64.2251V65.0716H161.685Z" fill="#010101"/>
<path d="M220.418 51.2798H214.786V54.9852L211.928 56.0771V59.9419H214.786V65.0705C214.786 65.9907 214.786 67.009 214.958 67.9292C215.29 69.696 215.964 71.2051 217.486 72.1376C218.578 72.8124 219.756 73.0578 221.019 73.2296C223.044 73.4013 227.412 73.3155 227.412 73.3155V68.3464C227.412 68.3464 223.375 68.3464 222.283 68.2605C221.191 68.0887 220.602 67.5857 220.43 66.5796C220.344 66.322 220.344 65.9907 220.344 65.733V60.0156H227.412V54.9729H220.344L220.43 51.2676L220.418 51.2798Z" fill="#010101"/>
<path d="M90.4246 47.5742H84.793V73.3151H90.4246V47.5742Z" fill="#010101"/>
<path d="M175.647 54.8857H170.016V73.3142H175.647V54.8857Z" fill="#010101"/>
<path d="M250.698 60.6172C250.526 58.6787 249.778 57.0837 248.084 55.9058C247.164 55.3169 246.06 54.8997 244.968 54.728C242.784 54.3108 240.674 54.2249 238.49 54.4703C236.981 54.6421 235.459 54.8875 234.11 55.5623C232.257 56.4825 231.251 58.0039 230.907 59.9424H236.797C236.797 57.918 245.127 57.0837 245.127 61.2061V62.0527C245.127 62.0527 239.913 62.4699 237.729 62.5558C236.134 62.6416 234.527 62.8134 233.018 63.4023C231.84 63.8195 230.92 64.4943 230.49 65.6722C229.987 67.0218 229.987 68.445 230.576 69.8805C231.251 71.6473 232.674 72.6534 234.367 73.2423C236.809 74.0889 239.336 74.0889 241.852 73.4999C243.447 73.1687 244.796 72.408 245.471 70.7271L245.974 73.3404H250.771V61.8196C250.685 61.8196 250.685 61.0589 250.685 60.6418L250.698 60.6172ZM242.367 69.3652C241.447 69.6229 240.514 69.7824 239.594 69.7824C238.747 69.7824 237.913 69.6965 237.152 69.4511C236.478 69.1934 235.975 68.6904 235.803 68.0156C235.545 67.0095 236.06 66.2488 237.067 65.9912C237.827 65.8194 238.502 65.8194 239.25 65.7335C240.845 65.5617 245.054 65.2305 245.054 65.2305C245.311 66.9972 244.207 68.764 242.367 69.3529V69.3652Z" fill="#010101"/>
<path d="M209.302 47.5742H203.67V51.2795H209.302V47.5742Z" fill="#010101"/>
<path d="M175.647 47.5742H170.016V51.2795H175.647V47.5742Z" fill="#010101"/>
<path d="M194.247 54.8861H193.744C192.652 54.6284 191.56 54.4689 190.468 54.3831C188.284 54.2972 186.088 54.3831 183.99 55.0579C181.72 55.7327 179.953 56.9964 179.021 59.2662C178.432 60.7753 178.26 62.2967 178.346 63.8917C178.604 67.4253 180.444 69.8669 183.818 70.9588C186.677 71.879 189.707 71.879 192.652 71.376C192.91 71.2901 193.155 71.376 193.413 71.5478C193.83 71.879 194.173 72.3943 194.259 72.8974C194.517 74.247 193.928 75.339 192.75 76.0138C192.333 76.1855 191.904 76.345 191.4 76.4309C189.965 76.6886 188.542 76.6027 187.106 76.345C185.511 76.0874 184.493 74.9954 184.162 73.4004H178.53C178.616 75.0813 179.119 76.934 180.297 78.1977C181.303 79.3755 182.652 80.1362 184.088 80.5534C187.707 81.5595 191.327 81.6454 194.86 80.5534C196.21 80.1362 197.474 79.4614 198.394 78.3695C199.903 76.6886 200.075 74.75 199.744 72.652C199.412 70.9711 198.566 69.7074 197.057 68.9467C196.971 68.9467 196.971 68.8608 196.799 68.7749C198.566 67.8547 199.486 66.3333 199.829 64.4807C200.087 62.7998 200.001 61.2048 199.412 59.5975V59.5116L201.179 58.8368V54.972H194.284V54.8861H194.247ZM194.161 63.8917C193.903 65.3272 193.069 66.2474 191.719 66.5787C189.953 67.0817 188.186 67.0817 186.419 66.5787C184.91 66.1615 184.149 65.1432 183.978 63.6341C183.892 63.131 183.892 62.5421 183.978 62.0391C184.235 60.53 185.241 59.5975 186.836 59.2662C187.511 59.0945 188.272 59.0944 189.106 59.0944C190.026 59.0944 191.045 59.1803 191.965 59.5116C193.143 59.9288 193.903 60.8612 194.063 62.125C194.235 62.7139 194.235 63.3028 194.149 63.8917H194.161Z" fill="#010101"/>
<path d="M113.65 60.6172C113.479 58.6787 112.73 57.0837 111.037 55.9058C110.117 55.3169 109.013 54.8997 107.921 54.728C105.737 54.3108 103.626 54.2249 101.442 54.4703C99.9333 54.6421 98.4119 54.8875 97.0623 55.5623C95.2096 56.4825 94.2036 58.0039 93.86 59.9424H99.7493C99.7493 57.918 108.08 57.0837 108.08 61.2061V62.0527C108.08 62.0527 102.866 62.4699 100.682 62.5558C99.0867 62.6416 97.4794 62.8134 95.9703 63.4023C94.7925 63.8195 93.8723 64.4943 93.4429 65.6722C92.9398 67.0218 92.9398 68.445 93.5287 69.8805C94.2036 71.6473 95.6268 72.6534 97.3199 73.2423C99.7615 74.0889 102.289 74.0889 104.804 73.4999C106.399 73.1687 107.749 72.408 108.424 70.7271L108.927 73.3404H113.724V61.8196C113.638 61.8196 113.638 61.0589 113.638 60.6418L113.65 60.6172ZM105.32 69.3652C104.399 69.6229 103.467 69.7824 102.547 69.7824C101.7 69.7824 100.866 69.6965 100.105 69.4511C99.4303 69.1934 98.9272 68.6904 98.7554 68.0156C98.4978 67.0095 99.0131 66.2488 100.019 65.9912C100.78 65.8194 101.455 65.8194 102.203 65.7335C103.712 65.5617 108.006 65.2305 108.006 65.2305C108.264 66.9972 107.16 68.764 105.32 69.3529V69.3652Z" fill="#010101"/>
</g>
<defs>
<clipPath id="clip0_4638_6215">
<rect width="249.029" height="58.8925" fill="white" transform="translate(10 31)"/>
</clipPath>
</defs>
</svg>
