<svg width="270" height="120" viewBox="0 0 270 120" fill="none" xmlns="http://www.w3.org/2000/svg">
<g clip-path="url(#clip0_5237_2737)">
<path d="M61.5564 76.7744H54.3839V56.7095L43.6251 67.4683L32.8663 56.7095V76.7744H25.6938V43H29.507L43.7159 57.2089L57.7432 43H61.5564V76.7744Z" fill="black"/>
<path d="M18.5215 58.1719H0L18.5215 76.6933V58.1719Z" fill="black"/>
<path d="M103.769 76.675H70.9995V43H102.385V49.9386H78.1997V55.4894H94.0768V62.2429H78.1997V69.9215H103.769V76.675Z" fill="black"/>
<path d="M148.044 76.6748H140.026L131.179 62.9641H119.474V76.6748H112.378V43.1807H134.865C138.183 43.1807 140.764 44.0088 142.791 45.5731C145.003 47.3214 146.109 49.8059 146.109 53.0264C146.109 55.2348 145.464 57.1672 144.266 58.9155C142.975 60.6638 141.316 61.86 139.197 62.5961L148.044 76.6748ZM138.828 53.0264C138.828 52.1063 138.552 51.3701 137.906 50.818C137.261 50.358 136.155 50.0819 134.773 50.0819H119.474V56.247H134.773C136.248 56.247 137.261 55.971 137.906 55.4189C138.552 54.5907 138.828 53.8546 138.828 53.0264Z" fill="black"/>
<path d="M190.885 76.6748H182.487L170.028 59.9277L164.952 64.2524V76.6748H157.753V43.1807H164.952V55.6949L179.811 43.1807H189.778L175.196 55.5109L190.885 76.6748Z" fill="black"/>
<path d="M229.463 76.675H199.228V43H206.418V69.9215H229.463V76.675Z" fill="black"/>
<path d="M269.99 76.675H237.219V43H268.604V49.9386H244.327V55.4894H260.205V62.2429H244.327V69.9215H269.99V76.675Z" fill="black"/>
</g>
<defs>
<clipPath id="clip0_5237_2737">
<rect width="270" height="33.7744" fill="white" transform="translate(0 43)"/>
</clipPath>
</defs>
</svg>
