<svg width="270" height="120" viewBox="0 0 270 120" fill="none" xmlns="http://www.w3.org/2000/svg">
<g clip-path="url(#clip0_4514_6354)">
<mask id="mask0_4514_6354" style="mask-type:luminance" maskUnits="userSpaceOnUse" x="34" y="14" width="203" height="92">
<path d="M237 14H34V106H237V14Z" fill="white"/>
</mask>
<g mask="url(#mask0_4514_6354)">
<path d="M34.8521 54.6664V15.1074H45.3781L59.4315 47.256H59.7674L73.7089 15.1074H84.2909V54.6664H77.5161V23.7992H77.1242L63.5747 54.6664H55.5682L42.0747 23.7992H41.6828V54.6664H34.8521Z" fill="black"/>
<path d="M114.142 55.3356C99.809 55.3356 90.7944 46.9781 90.7944 34.8875C90.7944 22.797 99.809 14.4395 114.142 14.4395C128.475 14.4395 137.378 22.797 137.378 34.8875C137.378 46.9781 128.475 55.3356 114.142 55.3356ZM98.4091 36.3918C98.4091 44.1365 104.176 49.151 114.142 49.151C124.108 49.151 129.763 44.1365 129.763 36.3918V33.3832C129.763 25.6385 124.108 20.624 114.142 20.624C104.176 20.624 98.4091 25.6385 98.4091 33.3832V36.3918Z" fill="black"/>
<path d="M143.879 54.6664V15.1074H153.901L176.688 46.7545H177.081V15.1074H183.912V54.6664H174.001L151.157 23.0192H150.821V54.6664H143.879Z" fill="black"/>
<path d="M213.764 55.3356C199.431 55.3356 190.417 46.9781 190.417 34.8875C190.417 22.797 199.431 14.4395 213.764 14.4395C228.098 14.4395 237 22.797 237 34.8875C237 46.9781 228.098 55.3356 213.764 55.3356ZM198.031 36.3918C198.031 44.1365 203.798 49.151 213.764 49.151C223.73 49.151 229.385 44.1365 229.385 36.3918V33.3832C229.385 25.6385 223.73 20.624 213.764 20.624C203.798 20.624 198.031 25.6385 198.031 33.3832V36.3918Z" fill="black"/>
<path d="M56.5638 105.558C42.6224 105.558 34 97.4235 34 85.2218C34 73.0195 43.0703 64.6621 57.2917 64.6621C68.8256 64.6621 76.4961 69.4538 79.4636 78.3686H71.793C69.1615 72.9641 64.8503 70.791 57.2917 70.791C47.3815 70.791 41.6146 75.8612 41.6146 83.7732V86.7818C41.6146 94.8046 47.4375 99.6521 57.6276 99.6521C66.5859 99.6521 72.2969 95.5852 72.2969 90.6818V89.1218H58.3555V83.8846H79.3516V104.89H72.7448V99.0395H72.3529C69.8894 103.107 63.7865 105.558 56.5638 105.558Z" fill="black"/>
<path d="M88.9697 104.889V65.3301H111.142C121.22 65.3301 127.211 69.7317 127.211 76.6965C127.211 81.488 124.747 84.3297 119.764 85.8897V86.2794C125.083 87.0594 126.091 90.18 126.091 94.1354V97.5343C126.091 100.376 126.427 102.827 129.45 104.722V104.889H121.22C118.924 102.995 118.812 101.045 118.812 98.6485V94.7485C118.812 92.1297 118.028 89.1211 111.03 89.1211H96.2482V104.889H88.9697ZM96.2482 83.3268H111.198C117.077 83.3268 119.876 81.432 119.876 77.7548V76.6405C119.876 72.9634 117.077 71.0689 111.142 71.0689H96.2482V83.3268Z" fill="black"/>
<path d="M131.383 104.889L149.803 65.3301H160.441L178.974 104.889H171.191L165.929 93.5782H144.373L139.165 104.889H131.383ZM147.004 87.5611H163.241L155.291 70.5117H154.898L147.004 87.5611Z" fill="black"/>
<path d="M184.38 104.889V65.3301H194.906L208.959 97.4788H209.295L223.236 65.3301H233.818V104.889H227.044V74.0217H226.652L213.102 104.889H205.096L191.602 74.0217H191.211V104.889H184.38Z" fill="black"/>
</g>
</g>
<defs>
<clipPath id="clip0_4514_6354">
<rect width="203" height="92" fill="white" transform="translate(34 14)"/>
</clipPath>
</defs>
</svg>
